<svg viewBox="0 0 238.68 212.04"><path d="M238.68 19.26c-.06.09-.16.17-.18.28-.31 1.25-1.19 1.91-2.37 2.19-.61.14-1.24.22-1.86.24-2.07.05-4.12-.04-6.18-.33-1.62-.23-3.27-.27-4.91-.41-.35-.03-.7-.13-1.05-.2-.31-.06-.63-.13-.96-.19-.3.68-.22 1.32-.06 1.91.76 2.83 3.17 4.99 6.36 4.99 1.11 0 2.21-.08 3.29-.32.98-.22 1.73-.78 2.37-1.52.18-.2.34-.42.53-.61.8-.84 1.97-1.07 3.05-.61 1.24.54 1.72 1.55 1.36 2.85-.24.86-.76 1.57-1.36 2.19-1.47 1.54-3.16 2.73-5.22 3.38-1.31.41-2.66.45-4 .33-1.19-.11-2.37-.29-3.52-.65-3.04-.95-5.32-2.81-6.88-5.56-1.33-2.36-1.72-4.94-1.65-7.62.04-1.58.36-3.07 1-4.52.77-1.74 1.96-3.15 3.4-4.35 1.64-1.37 3.53-2.27 5.65-2.54 1.03-.13 2.09-.07 3.14-.08.51 0 1.02.03 1.52.09 1.06.12 2.01.57 2.91 1.12 1.74 1.07 3.11 2.52 4.18 4.26.75 1.21 1.21 2.53 1.25 3.98 0 .16.11.31.17.46.02.4.02.82.02 1.24zm-12.34-1.42c1.38-.01 2.76.03 4.13-.02.62-.02 1.24-.17 1.84-.33.53-.14.87-.54.97-1.08.09-.53.1-1.08-.15-1.58-.97-1.93-2.53-3.11-4.69-3.31-2.64-.25-4.93.71-6.95 2.36-.76.62-1.23 1.47-1.52 2.39-.25.78-.08 1.11.74 1.3.64.15 1.29.24 1.95.26 1.23.04 2.46.01 3.68.01zM0 2.7c.38-.45.72-.95 1.16-1.34.37-.33.84-.55 1.18-.76 1.76.26 3.38.53 5.01.74.42.05.87-.11 1.31-.16 1.29-.14 2.58-.2 3.77.43 1.43.75 2.42 2.26 1.85 3.95-.78 2.32-.75 4.71-.76 7.1 0 1.34.05 2.69.16 4.03.08.98.28 1.95.43 2.92.1.68.14 1.36 0 2.05-.07.33.02.71.12 1.04.22.71.52 1.4.56 2.16.06 1.14.05 2.26-.45 3.32-.11.24-.21.49-.34.77.16.16.28.34.44.44.66.42 1.36.76 2.14.88 1.56.25 3.13.48 4.69.71.71.1 1.41.25 2.06.58.76.39 1.16 1 1.15 1.87-.01.97-.22 1.84-.94 2.53-.49.47-1.04.72-1.71.43-1.34-.57-2.75-.45-4.16-.44-1.98.02-3.96.02-5.94.06-1.8.03-3.59.15-5.38.12-1.46-.03-2.92-.2-4.38-.36-.4-.04-.82-.23-1.15-.47-.95-.7-.78-2.53.27-3.07.34-.17.73-.27 1.1-.36 1.37-.35 2.78-.42 4.19-.38.39.01.78.02 1.17-.01 1.19-.07 1.95-.73 2.15-1.91.11-.64.18-1.3.19-1.96.02-3 .01-6 .01-9 0-3.24 0-6.48-.02-9.72 0-.53-.06-1.08-.18-1.6C9.45 6.13 8.57 5.4 7.34 5.4c-1.13 0-2.27.09-3.4.13-.77.02-1.54.08-2.32-.1C.88 5.26.35 4.93.16 4.16c-.02-.07-.11-.13-.16-.2V2.7zm29.34 209.34c-.15-.06-.3-.13-.46-.16-.32-.07-.66-.08-.96-.17-1.23-.38-1.45-1.37-.47-2.31.5-.08 1.03-.05 1.57.05.68.13 1.36.13 2.05-.02.79-.18 1.23-.65 1.42-1.43.12-.51.15-.99.06-1.52-.63.2-1.21.43-1.81.57-2.59.6-4.82-1.04-5.32-3.55-.21-1.08-.16-2.14.19-3.18.64-1.89 1.98-2.95 3.95-3.17 1.05-.11 2.02.14 2.81.91.08.08.18.15.33.26.04-.27.08-.49.12-.73.31-.24.68-.13 1.03-.14.48-.01.96-.02 1.44.02s.69.27.74.74c.02.18.02.36.01.54-.03.73-.11.83-.85 1.05-.08.02-.16.07-.29.12v.88c0 2.07.01 4.14-.01 6.21-.01.65-.04 1.33-.18 1.96-.4 1.7-1.33 2.57-3.35 2.88-.31.05-.66-.13-.91.19h-1.11zm3.11-9.68c.01-.96-.08-1.37-.42-1.89-.87-1.29-2.49-1.45-3.53-.07-.63.84-.62 2.76-.03 3.59.94 1.31 2.65 1.29 3.54-.01.35-.5.49-1.08.44-1.62zM163.98 0c.13.06.25.13.38.18.55.22 1.13.38 1.65.67 1.23.67 1.71 1.81 1.68 3.15-.02.77-.21 1.53-.6 2.23-.73 1.33-1.69 1.86-3.17 1.66-2.25-.3-4.02-2.18-3.9-4.4.03-.51.03-1.02.12-1.51.16-.86.69-1.44 1.5-1.76.13-.05.24-.14.35-.22h1.99zM41.58 0c.12.06.24.13.37.19.58.24 1.19.42 1.72.73.95.54 1.43 1.42 1.5 2.51.08 1.2-.1 2.32-.86 3.3-.68.86-1.54 1.27-2.66 1.17-1.98-.18-3.51-1.59-3.93-3.19-.24-.91-.2-1.85-.03-2.76.15-.81.68-1.38 1.46-1.71.16-.06.3-.16.45-.24h1.98zm69.49 60.65c-.42.44-.47.48-.96.18-.34-.2-.65-.29-1.09-.09l-.27.74h.55c.25.35.09.72.04 1.2-.65-.33-1.22-.63-1.86-.96-.11.09-.26.21-.47.37.24.19.41.33.59.47.06.33-.11.53-.42.55-.36.03-.72-.01-1.07-.03-.29-.02-.58-.06-.88-.1-.2.24-.37.44-.53.63-1.13-.12-1.97.43-2.77 1.08-.35.81-.22 1.82-1.17 2.4v1.72c-.72.4-.73.4-1.17-.14.16-.19.33-.38.54-.62l-.46-.43c-.23.16-.41.29-.62.43h-.96c-.12.31-.24.63-.37.98.38.22.7.4 1.19.69.04-.09.12-.24.21-.42.34.1.68.2 1.07.32v1.11c-.3-.02-.58-.04-.92-.07-.03.12-.1.25-.09.38.03.35.09.69.15 1.09-.3.01-.5.02-.75.04-.12-.23-.23-.46-.36-.71-.11.05-.23.07-.26.13-.1.21-.16.45-.27.66-.15.31-.22.35-.9.67l-.79-.48c-.05-.63.03-1.2.45-1.69-.8-.34-1.03-.22-1.38.74-.31-.31-.6-.61-.93-.95h-1.09c-.17-.36-.31-.67-.49-1.04.03-.49.44-.99.25-1.63-.19-.08-.4-.18-.66-.29 0-.15-.01-.33 0-.5.03-.37.08-.77-.33-.94-.36-.15-.73-.04-.96.28-.21.28-.47.19-.72.2-.31-.4-.61-.8-.93-1.2-.25-.03-.48-.06-.77-.09-.29-.62-.81-.76-1.46-.55-.13-.15-.25-.28-.39-.45-.16.04-.33.08-.48.13-.23.65-.87 1.05-.91 1.75-.49.04-.37-.47-.65-.67h-1.07c-.12 0-.28-.02-.35.05-.2.19-.4.44-.67.28-.3-.18-.59-.43-.77-.72-.29-.45-.64-.59-1.2-.45-.04.21-.07.43-.11.65.2.18.36.35.54.49.18.15.37.28.6.45.03.36.45.66.28 1.15-.07.03-.15.09-.23.1-.81.11-1.06.61-.6 1.28.16.23.42.4.67.62-.12.44-.16.86.17 1.32.28.4-.06 1.49-.47 1.81-.16.13-.42.14-.67.22-.09-.25-.17-.4-.2-.57-.08-.47-.05-.98-.24-1.4-.17-.38-.57-.66-.91-1.02-.19.09-.42.12-.54.26-.26.29-.21.67-.15 1.03.01.08.06.17.12.24.45.56.67 1.19.55 1.95.55.34 1.16.59 1.57 1.13.1.4.19.82.1 1.28-.05.24.08.52.15.86-.39.68-.76 1.46-1.43 2.08-.15-.18-.27-.32-.4-.47-.36.27-.36.27-.03.65-.12.21-.25.44-.4.72-.17-.03-.33-.05-.58-.1-.17.23-.36.48-.58.78-.51.19-1.3.02-1.41.9-.08.64 0 1.22.72 1.47-.07.69.05 1.29.48 1.87.15.01.35.02.54.03.43-.58.15-1.11-.03-1.55.12-.49.46-.53.84-.6.06.15.12.3.21.51.18.01.37.02.61.03.08-.18.16-.35.25-.54.61.17.9.53.86 1.18-.03.48-.07.97.43 1.31-.28.42-.38.86-.71 1.24-.25.29-.34.75-.43 1.15-.06.29-.01.6-.01.91-.22.21-.72.1-.63.69.16.04.36.1.63.17-.21 1.24.29 2.24 1.41 2.93.04.57.17 1.08.74 1.34.13.52 0 .96-.39 1.31-.25.22-.32.49-.32.81.01.9-.03 1.8.05 2.7.05.52.22 1.06.45 1.53.17.34.21.67.24 1.02.06.59.12 1.16.55 1.66.21.24.22.66.3 1.01.08.35.21.7.2 1.05-.02.59.34 1.01.57 1.47.37.75.78 1.47.95 2.31.05.28.28.52.45.82-.15.38-.1.77.12 1.16.28.49.52 1 .77 1.51.16.32.3.63.66.82.19.1.32.33.49.52.25.01.52.03.8.04.15.27.29.53.45.82h.64c.19-.22.38-.44.58-.68.01-.23.03-.47.04-.75.55-.52 1.12-1.05 1.77-1.67.01-.18.02-.47.04-.83.13-.11.28-.25.48-.43.02-.42.05-.9.08-1.42.44-.25.68-.66.72-1.21.04-.6.13-1.19.21-1.84.88-1.03.84-2.22.27-3.57.39.1.54.62.9.28.27-.52-.53-.5-.45-.99 0 0 .04-.09.1-.14.51-.45.54-.57.23-1.11-.17-.3-.47-.57-.34-1.05.29.02.6.05.91.07.24-.24.2-.49.03-.8-.37-.05-.77-.1-1.24-.16 0-.22-.03-.42.01-.6.05-.19.24-.36.24-.55.02-1.05.01-2.09.01-3.17-.22-.12-.42-.22-.67-.36v-1.28c.34-.6 1-1.17.64-2.01.67-.73.74-1.55.77-2.37-.25-.31-.47-.58-.74-.91.23-.27.46-.53.72-.84.02-.25.04-.54.07-.86.38.02.74.04 1.15.06-.03.19-.06.42-.1.71.16.07.33.14.54.24.2-.41.38-.76.6-1.19-.29-.08-.51-.14-.75-.21-.2-.25-.42-.53-.69-.86-.24.22-.44.4-.7.65-.1-.18-.23-.31-.24-.45-.04-.36-.03-.72-.03-1.08 0-.12-.02-.29.05-.35.58-.5.54-1.39 1.18-1.85.16-.11.24-.32.36-.48-.57-.55-1.08-.57-1.41.01-.24.41-.53.61-1.01.71.13-.69.24-1.34.39-2.12.09-.11.28-.34.51-.63-.34-.17-.62-.3-.91-.45-.2-.52.22-.69.53-.85.23-.12.43-.19.39-.54-.2-.06-.41-.13-.63-.19-.01-.53.53-.67.57-1.08h.81c-.04.23-.07.4-.09.57-.02.17-.03.34-.05.52.58.15.56-.35.79-.66.5-.05.87-.34.93-.93h.81c.29.34.47.56.66.79.06-.06.13-.12.19-.18v1c-.55.28-1.17-.14-1.69.18-.42.44.18.87-.07 1.34.29.03.49.05.73.08.09-.17.17-.32.26-.48.42.03.87.26 1.3-.18.03-.21.07-.47.11-.72.61-.07.61-.07.96.6-.28.29-.57.57-.87.88.21.63.32 1.28.88 1.73 0 .79.14 1.56-.07 2.32-.34.1-.61.18-.94.28-.07.38-.14.75-.2 1.07.45.45.85.83 1.23 1.21v1.37c-.32.17-.38.63-.87.76-.33.09-.4.48-.31.73.25.47.91.11.94.83-.13.17-.34.43-.55.7.79.39.79.39.8 1.21v.78c-.53.44-.96.91-1.2 1.52.37.31.93-.01 1.18.5 0 .05.03.16-.01.23-.31.55-.47 1.06-.04 1.66.16.23.06.64.08.96-.3.42-.97.29-1.16.88.33.04.65.08 1.06.12.24.84.02 1.7.11 2.6-.29.18-.65.35-.5.86 1.18.64.8 1.81.85 2.87-.13.18-.26.37-.42.59.14.21.27.39.42.62-.02.58.16 1.22-.33 1.69.15.5.6.3.86.51.03.43-.01.9.12 1.31.12.38.44.69.69 1.06-.35.44-.83.79-.76 1.38.02.17.19.33.31.53.29-.15.51-.26.74-.37.27.3.21.65.2.96-.03.65.16 1.2.57 1.73.26.33.36.8.48 1.23.08.3.17.55.45.74.19.13.35.33.47.53.42.73 1.08 1.25 1.64 1.87.41.45.95.72 1.61.64.29-.04.6-.01.88-.01.35.26.69.5 1.04.76v.38l-.63.21c.03.11.02.19.05.21.86.4 1.58.23 2.27-.43.46-.44 1.06-.59 1.73-.56-.02.89-.95.82-1.38 1.4.51.16.95.29 1.36.42.29-.27.5-.52.77-.7.24-.17.52-.26.86-.43.39.33.82.69 1.2 1.02.57-.02.64-.43.77-.78.48-.07.51-.53.73-.86.14-.03.29-.08.43-.08.69.02 1.18-.27 1.61-.8.33-.41.76-.75 1.2-1.16.54-.03 1.13-.09 1.53-.96.18.35.29.55.45.85.22-.27.35-.43.51-.63-.44-.36-.85-.67-.8-1.15.43-.23.78-.42 1.13-.6-.16-.03.03.22.42-.05.38-.57-.33-1.25.22-1.75-.44-.92-.44-.92.22-1.58.25-.26.49-.52.71-.75.1-.81.08-1.6.44-2.32h.48c.05-.16.1-.32.17-.52-.25-.07-.44-.13-.76-.22.13-.07.2-.11.28-.14.62-.3 1.2-.64 1.35-1.39.03-.14.02-.29.03-.48-.28-.13-.54-.25-.86-.4v-1.15c.4-.17.65-.5.89-.9.24-.41.46-.91 1.04-1.01.05-.01.13-.04.15-.08.35-.65.96-.62 1.57-.61.15 0 .29-.03.45-.05.23-.53-.15-1.45.98-1.39 0 .79 1.01 1.11.79 1.95.21.17.37.3.59.47-.04.22-.07.46-.13.8-.83-.41-1.23-1.12-1.86-1.67-.16.17-.28.31-.45.5.26.34.5.64.81 1.04 0 .26-.02.62.01.97.02.32.1.64.17 1.03l.62-.36c.03.08.11.16.09.22-.06.19-.16.36-.23.55-.11.3-.24.6-.27.91-.01.15.18.32.33.56.22-.34.38-.58.52-.79.31-.08.46.08.47.31.02.23-.05.47-.07.71-.03.35-.14.68.17 1.01.25.26.19.61-.09.9-.13-.24-.25-.45-.39-.7-.37.23-.41.55-.19.77.74.74.59 1.67.63 2.57.04.74.13 1.45.44 2.16.24.55.18 1.23-.01 1.85-.11.34-.18.69-.23 1.04-.09.65-.14 1.31-.2 1.96-.04.41-.32.62-.63.82-.5.33-.83.75-.77 1.42.2.17.38.44.61.5.69.18.84.69.91 1.36l-.39.56c-.18-.11-.32-.2-.51-.32-.15.11-.31.23-.47.35-.03.85.05 1.71-.47 2.54-.31.06-.6.28-.62.66-.62.52-1.32.27-2 .37-.11.09-.25.2-.38.31-.33.28-.68.47-1.15.32-.13-.04-.31.08-.56.16-.42-.15-.81-.71-1.5-.47-.25-.83-.87-1.27-1.6-1.61-.89.46-1.96-.12-2.91.46-.12.4-.26.85-.39 1.28-.5.18-.74-.25-1.02-.46-.92-.69-1-.75-2.17-.73-.36.45-.74.93-1.15 1.44-.88-.58-1.76.14-2.64-.04.06-.43.06-.43.39-.8-.14-.1-.27-.19-.46-.33-.32.33-.6.66-.91.96-.15.14-.35.3-.53.3-.61 0-1.25.16-1.82-.17-.45-.26-.79-.01-1.14.26-.38-.25-.72-.48-1.11-.74-.5.61-1.12.67-1.84.41-.26-.1-.58-.05-.92-.08-.21.24-.4.47-.63.73-.58 0-1.18.04-1.78-.01-.58-.05-1.22.19-1.74-.18-.51-.36-1.2.01-1.64-.58-.29.26-.53.48-.78.71-.28 0-.57-.02-.86.01-.26.02-.52.09-.86.16-.03.4-.05.77-.07 1.04.23.36.41.62.57.88.09.15.13.36.26.46.48.41.57.87.31 1.43-.04.08-.03.17-.04.26.28.87 1.21.34 1.73.83.02.12.04.3.06.47.08.86.49 1.51 1.07 2.15.34.37.62.83 1.07 1.26h.99c.89 0 1.46.51 1.91 1.19.33.5.76.87 1.24 1.2.24.16.44.38.77.67.16.04.48.12.85.21.21.37.45.78.73 1.26.1.04.29.11.46.18.14.36.27.7.41 1.05-.07.11-.15.24-.22.37.18.22.36.44.57.69.45-.02.9-.18 1.09-.61.23-.49.6-.63 1.06-.68.09-.01.18-.04.33-.07.12.19.25.4.41.65 1.22 0 2.45.02 3.67-.01.24-.01.54-.13.71-.29.28-.27.6-.38.96-.42.65-.07 1.3-.15 2.04-.24.11-.1.29-.26.47-.43.94-.16 1.97.12 2.9-.59.22 0 .55-.02.88 0 .99.06 1.9-.1 2.65-.8.06-.06.16-.08.23-.13.47-.29 1.16.06 1.54-.53.55-.15 1.09-.3 1.74-.47.3-.55.91-.65 1.61-.61.33-.37.67-.74 1.06-1.18.18.17.28.58.67.45.31-.28.57-.65.92-.8.36-.15.82-.08 1.19-.1.22.16.38.28.51.37.12-.01.2.01.23-.02.39-.42.89-.65 1.4-.87.11-.04.19-.14.27-.21.07-.67.49-1.12 1.17-1.25.76-.15 1.53-.35 2.26.14.11.07.29.04.46.05.28-.2.57-.4.84-.59.11-.54.22-1.06.31-1.53.59-.21.67.45 1.14.45.13-.16.29-.36.47-.59.32.02.66.05 1.04.08.03-.3.06-.52.09-.81.67-.21 1.35-.43 2.1-.66l.86.95c.37.16.74.31 1.19.5.57-.83 1.52-1.36 2.02-2.39.58-.06.86-.64 1.3-.99.08-.07.13-.19.17-.3.14-.41.28-.83.42-1.27.39-.04.71-.07 1.08-.11.19-.18.41-.38.62-.58.21-.03.41-.07.63-.1.49-.57.7-1.39 1.5-1.72.16.11.34.25.54.39.1.51.2 1.02.3 1.54.48.18.48.18.83-.38.41-.17.98.21 1.32-.43-.15-.13-.28-.32-.45-.37-.49-.14-.86-.39-1.14-.82-.12-.19-.35-.31-.53-.46-.11-.52.39-.67.63-1.01.67.06 1.33.03 1.61-.84-.08-.21-.17-.46-.28-.77.12-.17.27-.38.44-.63.28.22.5.4.71.57.61-.37.81-.81.72-1.5-.06-.44-.1-.88-.15-1.36.63-.15 1.17-.28 1.78-.42.31.22.68.48 1.06.76.52-.47.82-1.09 1.07-1.77.64-.22 1.22-.55 1.46-1.25-.1-.68-1.05-.5-1.12-1.18.16-.51.64-.66 1.05-.89.36-.2.37-.19.67-.64-.17-.24-.35-.5-.56-.79v-.64c.25-.39.49-.76.73-1.13v-1.12c.39-.43.8-.86 1.19-1.29.46-.17.82.01 1.11.36.26-.13.47-.23.77-.38-.06.36-.11.64-.15.9.31.79.94.97 1.69.87.14-.02.3-.07.42-.14.42-.26.84-1.36.71-1.83-.05-.2-.15-.39-.18-.59-.03-.17-.01-.36-.01-.52-.53-.36-.53-.36-1.15-.24-.14-.22-.29-.44-.45-.69.12-.31.24-.61.35-.9-.23-.39-.46-.77-.71-1.2.98-.79 1.19-1.92 1.45-3.05-.09-.16-.19-.33-.29-.51.27-.67.91-.28 1.37-.49.1-.24.2-.49.31-.77-.1-.18-.21-.38-.34-.61-.27-.02-.53-.05-.81-.08-.11-.42-.21-.82-.31-1.22-.21-.13-.41-.25-.65-.4.31-1.33 1.3-2.22 1.99-3.26-1-1.11-1.01-2.63-.11-3.67.16-1.3.31-2.54.46-3.78.01-.12.03-.25.1-.34.29-.4.44-.77-.02-1.18-.1-.09-.08-.34-.08-.51-.01-.42 0-.84 0-1.29.55-.31.78-.72.62-1.39-.15-.63.05-1.31-.23-1.93.27-.76.13-1.54.18-2.32.04-.66.06-1.29-.47-1.82-.18-.18-.14-.46.06-.65.52-.48.46-1.1.38-1.68-.04-.32-.29-.62-.52-1.08v-1c.16-.14.32-.27.51-.42.05-1.14.47-2.28.01-3.44-.2-.06-.37-.11-.59-.17-.12-.33-.25-.68-.38-1.04.19-.23.33-.41.47-.59-.17-.65-.33-1.27-.53-2.04-.43-.26-.26-1.19-1.08-1.35-.04-.36-.14-.69.25-.96.14.22.27.43.46.73.14-.26.25-.46.37-.67.04.03.07.06.11.09v-1.33c-.38-.14-.56-.5-.62-.89-.43-.24-.87-.4-1.2-.69-.3-.26-.49-.64-.77-1.02-.07-.81-.66-1.61-.32-2.59-.19-.11-.35-.2-.39-.22-.25-.94.23-1.88-.47-2.61-.45-.07-.89-.13-1.34-.2-.05-.32-.09-.58-.14-.87-.14-.11-.3-.24-.47-.38.01-.24.03-.48.04-.78.35-.14.7-.28 1.12-.45.02-.19.05-.41.09-.68-.28-.05-.5-.09-.74-.13-.22.25-.42.47-.61.69-.69-.28-.63-1.12-1.16-1.49-.06-.53.04-1.05-.32-1.5-.12-.15-.04-.46-.05-.7-.01-.36 0-.71 0-1.03-.22-.16-.36-.26-.48-.35-.18-.5.24-.71.48-1.06-.02-.34-.04-.72-.07-1.13h70.79l.07.07c.02.02.04.05.04.08.01.24.02.48.02.72v107.11c-.07.09-.08.12-.1.13-.02.02-.05.03-.08.03H87.81c-.27-.22-.54-.45-.84-.7-.33.02-.68.06-1.04.05-.35-.01-.77.05-1.04-.12-.5-.31-1.01-.32-1.57-.33-.28-.55-.77-.7-1.34-.69-.39 0-.74-.04-1.09-.3-.27-.19-.69-.16-1.03-.27-.35-.11-.69-.27-1.21-.47-.65.11-1.36-.21-1.98-.79-.37-.02-.75.07-1.09-.25-.16-.15-.51-.11-.85-.16-.28-.49-.83-.62-1.41-.64-.57-.02-1.14 0-1.73 0-.64-.93-1.78-1.12-2.61-1.81-.32-.01-.64-.03-1.03-.05-.51-.48-1.13-.86-1.88-1.01-.23-.04-.51-.12-.65-.28-.37-.42-.85-.53-1.34-.67-.12-.16-.25-.32-.37-.48-.29-.03-.55-.06-.99-.11-.01-.02-.06-.18-.17-.27-.23-.18-.5-.31-.72-.5-.2-.16-.33-.44-.54-.55-.31-.16-.67-.21-1.08-.33-.3-.35-.69-.72-1.3-.63-.42-.71-.99-1.16-1.76-1.28l-1.52-1.64-.03.06c-.37-.22-.75-.42-1.09-.68-.71-.54-1.4-1.1-2.23-1.77-.04-.07-.15-.32-.18-.37-.4-.34-.66-.52-.88-.75-.48-.51-.92-1.06-1.41-1.56-.5-.51-1.05-.96-1.55-1.46-.2-.2-.33-.49-.53-.69-.17-.18-.4-.31-.64-.49-.02-.21-.04-.44-.08-.68-.09-.53-.28-.97-.89-1.1-.28-.06-.54-.24-.83-.38-.04-.32-.08-.61-.12-.91-.14-.07-.26-.14-.44-.24.1-.17.18-.36.3-.52.38-.48.46-.96-.01-1.56-.32 0-.7-.01-1.08 0-.33.02-.68-.06-.76-.35-.2-.72-.84-1.18-1.02-1.97.33-.34 1.03-.41.96-1.29-.02-.03-.12-.24-.22-.44-.49-.18-.9-.09-1.26.29-.19-.11-.36-.22-.54-.33v-1.01c-.33-.38-.54-.66-.79-.9a1.31 1.31 0 0 0-.53-.29c-.23-.06-.48-.04-.68-.05-.31-.49-.61-.96-.93-1.48.09-.17.21-.36.32-.56-.1-.18-.24-.35-.3-.54-.16-.47-.2-1.03-.47-1.42-.29-.4-.47-.81-.63-1.26-.04-.11-.09-.23-.18-.3-.34-.29-.38-.67-.35-1.06.04-.55 0-1.07-.22-1.58-.07-.16-.06-.35-.08-.53-.02-.15.02-.36-.07-.43-.55-.49-.26-1.12-.35-1.73.1-.09.21-.18.3-.29.29-.34.31-.75.01-1.04-.36-.35-.75-.67-1.16-1.03.24-.57.12-1.16-.17-1.69-.26-.47-.46-1.04-1.11-1.17-.01-.16-.02-.3-.04-.49.59-.41.69-.99.48-1.73-.38-.14-.79-.29-1.22-.45-.05-.22-.1-.42-.15-.66.55-.36.54-.95.59-1.54.22-.18.44-.37.7-.58-.23-.51-.53-.85-1.17-.72-.26.38-.13 1.16-.95 1.03-.32-.36-.54-.74-.39-1.29.41-.13.57-.5.58-.94.47-.07.88-.13 1.17-.54-.13-.48-.26-.96-.97-.98-.14.17-.29.34-.45.52-.09-.04-.22-.06-.24-.12-.39-.96-.89-1.9-.28-2.97.14-.24.15-.57.16-.86.01-.6-.04-1.2-.02-1.8.02-.56-.04-1.08-.5-1.48v-1.63c0-.12-.03-.26.03-.36.59-1.03.31-2.19.53-3.38.1-.09.27-.25.5-.46-.06-.54-.12-1.13-.18-1.75.18.04.31.06.49.1.35-.78.78-1.52.34-2.44-.13-.26-.11-.65-.03-.95.16-.6.19-1.17-.09-1.74.12-.05.2-.11.28-.11.36-.01.72 0 1.01 0 .36.2.37.75.93.62.05-.12.17-.28.16-.43-.03-.64-.05-1.29-.49-1.85-.22-.27-.32-.65-.17-1.05.17-.12.37-.25.64-.44v-2.16h1.21c.04-.25.06-.42.09-.61-.23-.28-.46-.55-.71-.85.45-.7.19-1.53.37-2.35.1-.09.23-.21.39-.36.18.42.13.92.63 1.23.2-.06.44-.14.73-.24.06-.32.12-.64.16-.89l-1.25-1.25 1.06-.21c.14-.55-.13-1.25.53-1.56.04-.63.01-1.18.3-1.72.22-.42.2-.94-.27-1.31.16-.31.36-.49.76-.35.18.26.37.54.55.8.42-.05.5-.27.5-.57V54.4l.89.52c.15-.23.3-.48.46-.73-.14-.33-.32-.75-.51-1.18.21-.13.36-.22.51-.31-.21-.36-.43-.71-.71-1.18.39-.02.68-.03.97-.04.01.28.06.53.51.49l-.03-.49c-.21.01-.35.02-.5.03.03-.08.04-.24.08-.24.53-.09.83-.5 1.19-.82.07-.06.14-.1.24-.17.11-.32.23-.66.36-1.04.54-.19.8-.7.95-1.2.24-.79.71-1.2 1.5-1.32.23-.03.46-.1.67-.14.33-.31.23-.68.21-1.02-.76-.69-.84-1.09-.35-2 .14.3.27.55.36.74.36.32.68.58 1 .87.53-.11.43-.54.48-.91.06-.45-.32-.67-.55-1.04.66-.25 1.28-.13 2.04-.03.06-.06.17-.19.29-.32-.12-.39-.21-.7-.31-1.03-.25-.07-.47-.13-.74-.2.07-.09.12-.2.17-.2.35-.02.71-.01 1.08-.01.19.33.11.79.58.95.39.14.7 0 1.06-.14.13-.25.26-.52.4-.82h35.82c.11.21.23.45.36.69.09-.02.19-.01.26-.05.29-.15.57-.33.87-.47.21-.1.45-.19.68-.2 1.08-.02 2.16-.01 3.24 0 .08 0 .17.05.24.08.13.54.09.73-.34.96-.34.18-.71.32-1.08.41-.54.13-1 .38-1.44.69-.93.65-1.88 1.27-2.9 1.96-.12.56-.26 1.19-.39 1.75-.62.54-1.44.77-1.65 1.61.61.41 1.16.71 1.78.86.13.39.18.78-.18 1-.49.29-.7.71-.76 1.24-.6.05-.71-.53-1.04-.68-.09-.44-.17-.81-.24-1.15l-1.28-.39c-.41.11-.87.23-1.33.34-.25.33-.5.67-.83 1.1v1.03c.5.12 1 .24 1.55.37.22-.24.54-.27.94-.12v.93c-.47.02-.91.04-1.3.06-.45.41-.31.79-.09 1.17.48.4 1.07-.02 1.56.22.39.37-.02.8.1 1.24.68.24 1.33.64 2.08.26.41.12.78.23 1.21.35.35-.39.87-.26 1.34-.34.59-.1.92.34 1.2.57.69.14 1.26.26 1.93.4.04-.08.12-.26.21-.46.62-.25 1.27-.38 1.97-.36 1.65.04 3.3.03 4.95.05.15 0 .29.02.44.02.05.22.1.42.14.59.45.1.61-.25.9-.48.69-.01 1.23.41 1.71.88.2.2.27.59.62.56.31-.03.63-.17.91-.31.18-.09.31-.27.46-.41.65.03.57.62.78.97l.84-.26c.47.46-.01.66-.18.99.45.15.85.41 1.4.26.08-.5.08-1.05.26-1.54.17-.47.52-.86.8-1.3h1.03c.46.47.83 1.07 1.52 1.35.25.1.38.5.56.76.23-.13.41-.23.61-.34.1.54.1.54-.22.9-.01.29-.03.59-.04.92-.4.21-.72.57-1.23.55.06-.12.11-.25.19-.37.33-.47.77-.91.38-1.55-.87-.31-.99.57-1.51.8.02.39.04.73.06 1.1.36.02.62.02.89.02zm-31.83-4.41c.39.09.67.16.96.22.07.29.13.53.19.77h.62c-.07-.78.33-1.12 1.02-1.12.14-.87-.66-.53-.95-.84-.03-.22-.07-.44-.11-.71-.59-.05-1.14-.12-1.73.02v1.66zm-11.3 13.97c-.13.78-.44 1.44-.21 2.16.44.3.8.03 1.17-.07.05-.31.09-.57.14-.83.21-.18.4-.35.62-.53-.03-.24-.05-.47-.08-.72-.55-.01-1.04-.01-1.64-.01zm6.34-9.02c-.89.4-.99.66-.73 1.85.57.22 1.13.19 1.67-.09.1-1.11.01-1.27-.94-1.76zm96.27-11.31c-.29.82.04 1.3.42 1.82.34-.08.74.1 1.13-.15v-.72c0-.12.01-.24 0-.36-.03-.54-.23-.77-.77-.76-.28 0-.56.11-.78.17zM32.31 88.69c-.22.41-.39.74-.55 1.05.22.32.38.56.55.79h.83c.13-.32.26-.61.37-.87-.33-.47-.64-.79-1.2-.97zm66.43-23.82c-.17.34-.32.65-.48.99.11.14.25.28.34.45.29.52.29.52.94.38.17-.29.34-.59.53-.93-.43-.3-.87-.59-1.33-.89zM72.89 53.78c.13.58.68.42 1.03.52.27.07.61-.13.94-.21v-.65c-.05.04-.09.09-.14.13-.12-.2-.25-.41-.38-.64h-.62c-.31.32-.57.58-.83.85zm4.31 33.2c.29.45.76.46 1.18.49.27.02.55-.15.82-.23v-.63c-.19-.18-.36-.34-.58-.55-.15.01-.38.02-.39.02-.42.37-.69.61-1.03.9zm98.07-20.01c.11.1.17.15.23.21a.8.8 0 0 1 .15.21c.28.53.28.53.93.42.17-.31.35-.63.52-.94-.47-.31-.9-.6-1.37-.91-.04.19-.05.37-.12.53-.07.14-.19.27-.34.48zM82.75 46.71c.03.19.01.41.11.5.16.15.4.26.62.3.52.09 1.05.12 1.46.52.03.03.11 0 .25 0 .06-.14.13-.31.23-.54-.5-.32-.96-.61-1.42-.91-.01.04-.02.08-.03.13h-1.22zm.42-1.91c.3.48.75.42 1.14.52.21-.16.43-.31.68-.5-.04-.25-.07-.51-.1-.72-.35-.25-.67-.3-.96-.07-.27.22-.49.49-.76.77zm45.56 57.76c.78-.39.87-.82.41-1.55h-.89c-.1.19-.19.37-.27.52.18.43.84.39.75 1.03zm-10.34 16.98h-.99c-.08.1-.15.17-.19.25-.04.08-.04.17-.08.33.18.12.39.22.55.39.15.15.23.37.34.55.65-.48.69-.62.37-1.52zM77.06 55.61v.81c.15.08.33.13.45.24.13.12.22.29.34.45.3-.32.53-.58.76-.83l-.78-.72c-.21.02-.45.04-.77.05zm47.1 54.93c.16.3.3.57.44.84.36-.46.71-.89 1.03-1.33.06-.09.01-.26.01-.4-.15-.03-.23-.07-.32-.07-.11 0-.23.02-.16.01-.37.36-.64.61-1 .95zm6.27 10.19c-.6.36-.6.36-.83.78.09.31.18.6.27.91.21-.01.38-.02.52-.03.39-.59.21-1.13.04-1.66zM97.98 81.47c.4-.63.25-1.13.02-1.66-.56.36-.56.36-.78.78.08.3.16.58.24.91l.52-.03zm-58.7 28.87c-.12.58-.09 1.04.28 1.41.35.08.56-.07.7-.41-.06-.32-.13-.66-.2-1.01-.29.01-.51.01-.78.01zm66-50.45c0-.3.03-.56-.01-.81-.05-.3-.37-.46-.68-.38-.28.07-.44.3-.36.6.05.22.18.42.29.65.25-.02.47-.04.76-.06zm-32.72 3.57c-.38-.37-.77-.35-1.18-.24-.01.54-.04.59.28.75.27.13.41.7.9.3v-.81zm10.39-20.64c.02-.25.03-.4.03-.54 0-.09-.02-.18-.04-.26-.11-.29-.44-.47-.71-.39-.25.08-.4.34-.32.65.05.19.16.37.25.55.26-.01.49-.01.79-.01zM98.2 95.75c.24-.55.27-1-.02-1.43-.45-.09-.68.13-.8.52.08.31.16.61.25.91h.57zm-60.36 8.57c-.42-.47-.82-.37-1.25-.2-.01.13-.05.26-.01.3.38.32.77.64 1.07 1.11.31-.42.16-.81.19-1.21zm92.45 2.39c-.31.32-.56.62-.69 1.13.53-.08.96-.15 1.38-.22.09-.71.09-.71-.69-.91zM72.15 61.58c-.2-.41-.32-.66-.44-.92-.5.32-.5.32-.3 1.12.2-.05.39-.1.74-.2zm36.72-2.57c.32.31.63.5 1.12.31-.02-.19-.03-.38-.05-.55-.42-.18-.72-.04-1.07.24zm21.49 45.17c-.02-.4-.03-.67-.05-1.03-.36.29-.86.37-.64.99l.69.04zm42.84-48.35c-.06.38-.14.71.1 1.1.23-.24.41-.44.6-.64-.12-.32-.3-.46-.7-.46zM97.5 69.78c-.27.14-.46.24-.69.37.03.21.07.39.11.64.25-.08.43-.14.64-.2-.03-.28-.04-.5-.06-.81zm-1.51 8.31c-.04-.36-.06-.61-.09-.89-.35.14-.61.27-.68.6-.01.08.03.16.05.29h.72zm-55.73 36.88c.52.15.92.44 1.37-.09-.23-.16-.41-.28-.6-.42-.26.17-.47.31-.77.51zm88.22-11.33c.28-.31.28-.57.12-.88-.2.02-.39.05-.59.07v.64c.17.06.3.11.47.17zm-10.56 17.69h-.75c.02.27.04.48.06.72.2-.01.34-.02.51-.02.05-.22.1-.41.18-.7zm-79.81-13.34c-.23.26-.23.52.02.7.18.13.39.1.55-.17-.04-.27-.09-.54-.57-.53zm33.47-41.73c.37-.15.5-.33.35-.64-.3-.13-.51-.07-.65.28.1.1.18.21.3.36zm23.86 16.45c.31.14.58.21.68-.15.09-.36-.16-.43-.49-.42-.07.2-.13.37-.19.57zm3.53 1.61c-.2-.08-.39-.15-.69-.26.02.31.03.52.04.7.42.08.58-.07.65-.44zm11.48 41.2c-.29-.33-.37-.62-.78-.53v.69c.26-.05.44-.09.78-.16zm17.49-20.63c-.06-.45-.23-.64-.54-.54-.03.14-.07.32-.12.54h.66zM94.07 92.02c-.39.54-.39.54.17.83.07-.29.19-.55-.17-.83zm2.62-34.79v.63c.3.12.5.08.53-.18.04-.26-.08-.44-.53-.45zm29.02 51.65c.23.29.45.27.62.05.06-.08.03-.3-.04-.39-.07-.09-.25-.1-.41-.16-.07.21-.13.37-.17.5zm-30.66-8.64c.44-.02.62-.17.53-.5-.07-.25-.28-.25-.53-.1v.6zm73.06-54.63c-.28-.11-.53-.24-.71.13.35.49.42.48.71-.13zm-38.8 78.7c.15.42.15.42.62.34-.07-.53-.07-.53-.62-.34zm-4.91.24v.56c.21-.03.37-.04.53-.06.05-.38-.08-.54-.53-.5zM78.33 67.64c-.12-.21-.2-.34-.32-.53-.16.2-.28.34-.48.58.33-.02.52-.03.8-.05zm24.44 58.16c.06.49.22.62.54.47.06-.03.1-.12.17-.23-.21-.07-.4-.13-.71-.24zm-9.66-56.63c.3-.31.3-.31 0-.63v.63z"/><path d="M1.85 149.57V41.42h43.66c-.66.73-1.15 1.51-2.17 1.65-.04.19-.08.36-.12.53-.04.17-.04.42-.15.5-.65.45-.89 1.26-1.58 1.71-.98.63-1.66 1.5-1.57 2.77.01.08-.03.17-.06.31-.34.12-.83-.03-1.03.37-.25.5-.72.88-.73 1.51-.01.38-.09.77-.15 1.15-.31.4-.58.83-1.2.82-.13 0-.33.25-.38.42-.07.22-.02.47-.02.72-.18.15-.33.28-.49.42-.11.71-.64 1.33-.42 2.05-.33.4-.68.64-1.18.62-.04.99-.63 1.68-.96 2.48-.18.44-.3.9-.59 1.27-.3.38-.23.92-.62 1.27-.12.11-.08.4-.11.6-.05.39-.06.77-.13 1.16-.04.2-.1.48-.24.55-.63.32-.63 1.03-1.02 1.49-.41.48-.43 1.08-.38 1.66-.84.9-.37 2.02-.57 3.01-1 .7-.93 1.75-.89 2.8-.49.61-.84 1.27-.73 2.09.04.35.01.72.01 1.07-.16.22-.35.41-.45.64-.09.21-.09.47-.13.75-.14.13-.31.29-.5.46v.81c-.04 2.25-.09 4.49-.11 6.74 0 .56-.32.95-.61 1.46-.05 2.31-.11 4.7-.17 7.12.65.46.76 1.09.74 1.82-.03 1.35-.01 2.7-.01 4.09.63.18.75.62.7 1.18-.05.56-.05 1.13-.07 1.77.56.5.68 1.24.59 1.99-.08.65.19 1.19.35 1.77.04.14.25.24.39.37 0 .61-.01 1.21 0 1.81.01.41-.11.84.28 1.17.07.06.06.22.08.34.08.62.12 1.25.23 1.86.1.62.27 1.22.4 1.82.16.11.3.2.48.32-.09.86.08 1.64.74 2.29v1.15c0 .3-.03.59.23.83.11.1.12.33.13.5.02.39-.02.78.02 1.17.02.26.09.54.23.75.52.73.76 1.54.85 2.42.03.34.16.69.31 1.01.2.44.35.87.44 1.35.1.54.28 1.13.6 1.57.38.52.37 1.16.74 1.68.17.25.06.7.08 1.09-.12.08-.24.16-.36.25-.09.07-.18.15-.23.19-.22.57 1.06 1.89 2.3 2.44.1.45.05 1.03.7 1.21.16.64.4 1.26.11 1.97.29.05.51.1.72.14l.57.93c.12.65.41 1.39-.47 1.9.27.21.47.37.64.51.45-.12.84-.22 1.3-.33.05.44.12.85.56 1.05.26-.05.52-.09.83-.15.23.26.45.52.68.79-.08.12-.12.2-.18.26-.47.46-.53.87-.06 1.28.23.2.42.4.57.64.24.4.45.82.71 1.28.19.07.44.16.68.25.1.4.2.79.3 1.2.49.19.94.35 1.5.56.15.17.36.45.56.78.22.37.68.62.97 1 .21.27.47.51.69.75-.04.08-.05.11-.07.13-.02.02-.05.04-.07.04-5.34.01-10.68.02-16.02.02-9.89-.03-19.75-.04-29.67-.04zM79.32 14.28c-.5.82-1.39.95-2.22 1.17-.52.14-1.06.19-1.58.33-1.43.37-2.21 1.35-2.47 2.77-.22 1.16-.18 2.32-.06 3.48.05.45.05.9.06 1.35.05 1.44.33 2.84.72 4.23.19.7.59 1.22 1.21 1.61.88.55 1.85.83 2.84 1.06.7.16 1.39.33 2.07.56.39.13.76.35 1.1.59 1.09.78 1.23 1.98.62 3.1-.93 1.69-2.5 2.27-4.31 2.12-1.1-.09-2.19-.29-3.24-.65-.8-.28-1.62-.28-2.37.04-1.5.64-2.96.64-4.53.21-.89-.25-1.91-.09-2.86-.1-.27 0-.54.02-.81.02-1.81.02-3.11-1.57-2.76-3.35.24-1.2.93-2.09 1.92-2.71.81-.5 1.71-.84 2.57-1.27.64-.32 1.28-.64 1.9-1.01.75-.44 1.07-1.13 1.13-2.01.13-1.79.37-3.57.47-5.35.07-1.19-.05-2.39-.34-3.55-.11-.43-.38-.75-.82-.87-.46-.13-.92-.28-1.39-.35-.97-.16-1.95-.28-2.93-.4-1.33-.16-1.66-.56-1.68-1.93-.01-1.15.67-2 1.7-2.05.3-.02.59-.09.89-.11.33-.02.66-.02.99-.01.85.03 1.65-.23 2.45-.47.86-.26 1.27-.85 1.34-1.7.03-.45.02-.9.03-1.35.03-1.57.7-2.83 1.9-3.8 1.37-1.11 2.97-1.79 4.67-2.19 1.07-.25 2.17-.41 3.29-.38 2.19.07 4.17.74 5.95 1.98 1.15.8 1.78 1.93 1.94 3.3.11.99-.15 1.91-.84 2.66-.83.9-1.8 1.54-3.11 1.58-.97.03-1.7-.38-2.26-1.07-.56-.69-1.02-1.47-1.5-2.23-.27-.43-.46-.91-.7-1.36-.36-.65-.86-1.07-1.66-.96-.44.06-.89.11-1.33.17-1.08.16-1.71.87-2 1.83-.23.76-.33 1.58-.38 2.38-.06.87.32 1.45 1.15 1.71.71.22 1.46.29 2.19.42.47.08.96.09 1.41.21 1.14.28 1.95.98 1.64 2.35zm19.53 6.56c-.46.31-.4.63-.37.92.38 3.63 3.45 6.05 6.52 5.96.93-.03 1.85-.08 2.77-.19 1.04-.13 1.94-.6 2.65-1.38.32-.35.67-.69.97-1.06.86-1.03 3.36-.85 4.18.74.25.48.23 1.01.07 1.49-.2.59-.43 1.21-.82 1.68-1.65 2.01-3.64 3.55-6.22 4.19-1.33.33-2.66.31-4.01.17-1.17-.13-2.32-.3-3.42-.69-4.04-1.46-6.6-4.3-7.74-8.44-.34-1.25-.49-2.53-.51-3.81-.06-3.73 1.25-6.89 4.09-9.39 2.15-1.89 4.62-2.96 7.51-2.94.99.01 1.98-.01 2.97.07 1.41.12 2.64.77 3.77 1.57 1.48 1.06 2.67 2.4 3.62 3.95 1.03 1.7 1.33 3.58 1.2 5.53-.07.99-.6 1.74-1.52 2.18-.68.32-1.4.53-2.16.56-2.28.08-4.54.02-6.81-.31-1.59-.23-3.21-.27-4.82-.41-.35-.03-.7-.1-1.05-.17-.31-.07-.62-.15-.87-.22zm-1.47-3.95c.19.47.55.64.93.72.55.11 1.12.22 1.68.22 2.58.02 5.15.02 7.73 0 .56 0 1.13-.09 1.69-.19.99-.18 1.53-.84 1.46-1.84-.03-.43-.14-.9-.35-1.28-.65-1.19-1.65-2.05-2.88-2.61-.6-.27-1.24-.41-1.91-.44-2.08-.09-3.94.55-5.68 1.64-1.39.89-2.35 2.09-2.67 3.78zm112.1 16.89c.04 1.3-.55 2.16-1.76 2.52-.93.28-1.9.33-2.84.12-.78-.17-1.55-.44-2.32-.69-.62-.2-1.24-.16-1.85-.01-.35.09-.69.19-1.04.28-1.16.32-2.13-.09-2.96-.85-.69-.63-.66-1.26.12-1.79.56-.38 1.2-.66 1.81-.98.47-.25.97-.47 1.41-.78.96-.67 1.24-1.63.88-2.76-.19-.57-.4-1.13-.59-1.69a1.78 1.78 0 0 1-.01-1.14c.36-1.13.44-2.29.37-3.46-.09-1.59-.37-3.15-1.02-4.61-.15-.33-.34-.63-.53-.93-.45-.71-1.12-1.09-1.93-1.15-1.4-.11-2.75.06-3.96.85-.48.31-.97.6-1.43.93-.75.54-1.3 1.24-1.44 2.19-.1.71-.27 1.41-.3 2.12-.05 1.26-.04 2.52-.02 3.78.01.84-.04 1.68-.27 2.49-.13.47-.02.83.27 1.16.42.47.86.92 1.31 1.36.61.61 1.24 1.21 1.86 1.83.15.15.29.31.4.48.57.83.5 1.51-.3 2.11-.37.28-.83.48-1.28.62-.95.31-1.93.37-2.92.39-1.92.05-3.83-.02-5.69-.59-.45-.14-.91-.31-1.32-.56-.76-.46-.8-1.27-.13-1.87.57-.5 1.29-.6 1.99-.75.32-.07.65-.11.95-.24 1-.44 1.5-1.23 1.56-2.32.06-1.29-.11-2.57-.24-3.85-.02-.2-.03-.41.02-.6.35-1.3.69-2.59.83-3.94.19-1.83-.41-3.3-1.89-4.37-.56-.4-1.18-.7-1.77-1.06-.33-.2-.64-.43-.97-.64-.47-.3-.8-.72-.95-1.27.07-.4.4-.57.71-.75 1.47-.84 3.03-1.42 4.72-1.6.62-.07 1.2.06 1.66.51.38.38.75.78 1.1 1.18.54.62 1.2.76 1.95.48.9-.34 1.78-.7 2.66-1.06.58-.24 1.15-.5 1.72-.77 2.01-.95 3.95-.71 5.85.31 1.04.56 2.04 1.18 2.62 2.25.28.52.57 1.09.62 1.66.09 1.01.07 2.04-.04 3.05-.14 1.17-.2 2.32.12 3.47.26.95.24 1.89.02 2.84-.09.38-.15.77-.26 1.14-.43 1.41.01 2.61.91 3.66.42.5.96.89 1.48 1.3.74.61 1.56 1.12 2.11 2zM40.16 22.23c0-1.05.02-2.1-.01-3.15-.01-.44-.1-.89-.17-1.33-.25-1.55-1.33-2.6-3.23-2.65-1.11-.03-2.22.02-3.33-.01-.72-.02-1.44-.05-2.14-.2-.48-.1-.95-.35-1.38-.61-.37-.22-.57-.61-.58-1.06-.01-.24-.01-.48 0-.72.02-.62.3-1.09.85-1.39 1.16-.63 2.39-.93 3.71-.67.2.04.43.07.6.17.89.55 1.83.41 2.79.29 1.25-.17 2.49-.34 3.75-.29 2.08.07 3.32 1.08 3.87 2.98.29 1.02.35 2.06.28 3.11-.02.26-.12.52-.22.77-.47 1.14-.52 2.26.03 3.39.24.48.26.98.08 1.48-.14.42-.12.82.03 1.23.2.54.3 1.09.27 1.67-.03.73.26 1.34.75 1.87s1 1.03 1.51 1.54c.51.52 1.11.75 1.86.75.98 0 1.97.07 2.95.15.69.06 1.36.25 1.91.7.27.22.53.5.68.81.49.99.41 2.83-1.08 3.7-.76.45-1.59.71-2.45.81-.95.12-1.91.17-2.86.19-.83.01-1.67-.06-2.5-.13-1.1-.09-2.2-.22-3.3-.32-.98-.09-1.97-.17-2.95-.21-.44-.02-.89.1-1.33.15-1.84.19-3.69.43-5.55.34-.63-.03-1.26-.07-1.87-.18-.84-.15-1.39-.67-1.6-1.51-.04-.14-.07-.29-.1-.44-.32-1.64.48-2.8 2.11-3.01.95-.12 1.91-.16 2.86-.18 1.29-.03 2.56-.18 3.81-.49.86-.21 1.39-.74 1.54-1.56.19-.99.3-2.01.36-3.02.06-.99.01-1.98.01-2.97h.04zm116.95-7.06c-1.04-.08-2.08-.15-3.12-.24-.29-.03-.59-.11-.87-.21-.79-.29-1.31-.79-1.38-1.7-.06-.94.28-1.66 1.14-2.04 1.46-.65 2.94-.98 4.47-.17.73.39 1.52.19 2.29.09 1.34-.17 2.67-.37 4.02-.28 1.94.13 3.04 1.04 3.59 2.72.31.95.37 1.93.44 2.91.02.34-.08.72-.23 1.04-.54 1.18-.62 2.36-.06 3.55.24.52.24 1.06.09 1.58-.1.34-.09.62.02.95.24.77.47 1.54.4 2.37-.03.38.12.71.37.98.6.67 1.2 1.34 1.83 1.97.48.48 1.09.69 1.79.7.98.01 1.97.05 2.95.16.55.06 1.1.26 1.62.48.97.41 1.42 1.64 1.27 2.63-.19 1.24-.9 1.99-2 2.43-.81.32-1.65.52-2.53.54-.54.01-1.07.1-1.61.12-.3.02-.6-.01-.9-.03-.3-.02-.59-.07-.89-.07-1.56.01-3.1-.12-4.65-.35-.83-.12-1.67-.2-2.5-.2-.83 0-1.67.09-2.5.21-2.14.3-4.28.39-6.43.12-.84-.11-1.45-.55-1.7-1.39-.21-.7-.21-1.43-.04-2.13.13-.54.47-.95 1.03-1.16.73-.29 1.49-.44 2.27-.46.78-.03 1.56.02 2.34-.05.95-.09 1.89-.24 2.84-.4 1.18-.19 1.73-1 1.88-2.1.11-.86.17-1.73.21-2.59.07-1.61.14-3.23.13-4.84-.01-.92-.12-1.85-.31-2.75-.32-1.5-1.37-2.35-2.92-2.45-.78-.05-1.56-.01-2.34-.01-.01.02-.01.05-.01.07zm-20.57 13.94c1 .76 2.01 1.13 3.08 1.3 1.39.22 2.78.39 4.17.56.75.09 1.47.28 2.12.67.79.46 1.13 1.21 1.03 2.11-.07.6-.21 1.17-.51 1.7-.51.88-1.31 1.27-2.27.89-1.19-.46-2.41-.4-3.63-.4-2.1.01-4.2.03-6.3.06-1.8.03-3.59.15-5.39.12-1.4-.02-2.8-.21-4.2-.32-.03 0-.06 0-.09-.01-1.52-.33-1.91-.69-1.79-2.54.03-.42.26-.74.64-.92.38-.18.77-.35 1.17-.45 1.08-.26 2.17-.43 3.29-.4.57.01 1.14 0 1.71 0 2.02.02 2.52-.99 2.73-2.53.06-.44.05-.9.05-1.35-.01-6.33-.01-12.66-.03-18.99 0-.53-.06-1.08-.22-1.59-.31-1-1.16-1.64-2.22-1.65-1.16-.01-2.33.07-3.49.12-.81.03-1.6.02-2.41-.11-1.54-.25-1.89-2.38-1.15-3.22.38-.43.79-.82 1.23-1.18.38-.31.82-.4 1.34-.31 1.29.23 2.6.37 3.9.59.6.1 1.17-.02 1.76-.1 1.16-.16 2.32-.18 3.45.24 1.4.52 2.15 1.58 2.38 3 .07.42-.05.9-.19 1.31-.56 1.55-.67 3.15-.66 4.77.01 1.89 0 3.78.08 5.67.04 1.01.27 2.01.38 3.02.07.71.16 1.44.09 2.14-.06.62.02 1.18.24 1.74.34.88.57 1.77.49 2.71-.08.86-.14 1.73-.56 2.52-.13.27-.15.54-.22.83zm81.88 125.52c.4-.35.93-.44 1.46-.53 1.31-.24 2.62-.21 3.94-.21 3.18.01 6.36.04 9.54.06.9.01 1.67.32 2.39.86 1.95 1.47 1.45 4.08.62 5.36-.38.59-.91 1.05-1.74.88-.57-.35-.77-.95-1.01-1.53-.25-.64-.5-1.28-.81-1.89-.38-.73-1.04-1.08-1.85-1.03-.71.04-1.43.12-2.13.26-.67.13-1.29.14-1.94-.09-.44-.15-.92-.25-1.39-.25-.7 0-1.18.43-1.42 1.06-.17.44-.3.92-.33 1.39-.05.93-.05 1.86-.02 2.79.01.35.11.71.24 1.04.23.58 1.11 1.03 1.82.58.45-.29.85-.66 1.28-.99.47-.36.93-.77 1.44-1.06 1-.56 2.03-.11 2.3 1.01.17.69.2 1.42.26 2.13.04.45 0 .9.01 1.35.02.95-.35 1.76-.94 2.46-.66.79-1.35.69-1.84-.22l-.12-.24c-.71-1.47-1.89-1.87-3.49-1.12-.07.31-.21.68-.22 1.06-.03 1.2.09 2.39.35 3.56.06.26.16.51.27.76.43.96 1.11 1.36 2.14 1.25.86-.09 1.72-.18 2.57-.33.56-.1 1.11-.25 1.64-.45.95-.35 1.55-1.08 2.03-1.94.32-.58.65-1.14 1.03-1.69.51-.73 1.31-.87 2.01-.31.34.27.66.65.81 1.05.23.61.33 1.27.44 1.91.07.42.02.83-.33 1.15-.27.25-.24.58-.15.92.35 1.37.17 1.78-1.12 2.41-1.14.55-2.33.89-3.62.88-4.29-.02-8.58-.02-12.87 0-.69 0-1.22-.24-1.65-.75-.28-.33-.46-.7-.35-1.16.3-.47.75-.75 1.25-.98.41-.19.82-.37 1.21-.59.73-.42 1.13-1.05 1.13-1.91 0-.66-.01-1.32 0-1.98.04-1.83.09-3.65.16-5.47.03-.66.05-1.33.21-1.96.25-1.01-.01-1.96-.14-2.93-.07-.5-.21-.99-.36-1.48-.15-.51-.45-.89-.98-1.09-.44-.18-.87-.4-1.27-.66-.44-.31-.71-.73-.46-1.34zm-127.97 6.41c-.7-.46-.83-1.26-1.13-1.97-.2-.47-.35-.96-.6-1.4-.41-.74-1.06-1.14-1.92-1.08-.74.06-1.48.16-2.22.29-.57.1-1.12.15-1.67-.09-.24-.11-.51-.16-.78-.21-1.32-.25-2.13.29-2.4 1.61-.25 1.18-.19 2.38-.17 3.58v.09c.15 1.13.46 1.46 1.62 1.72.54-.17.98-.52 1.41-.9.39-.33.77-.67 1.17-.98.26-.2.54-.38.85-.5.83-.33 1.73.1 1.99.99.16.54.26 1.11.29 1.67.05.78.05 1.56.01 2.34-.05.94-.49 1.72-1.18 2.35-.44.4-.84.38-1.25-.07-.22-.24-.39-.53-.52-.83-.5-1.06-1.75-1.6-2.84-1.22-.41.15-.68.39-.68.84 0 1.29-.12 2.58.22 3.84.11.4.26.8.44 1.17.34.73.94 1.1 1.74 1.03 1.28-.11 2.57-.16 3.81-.51 1.17-.33 2.08-1 2.67-2.1.45-.84.83-1.74 1.64-2.33 1.14-.17 1.6.07 2.15 1.01.45.78.49 1.65.62 2.51.03.2-.15.44-.26.65-.11.21-.26.4-.4.6.09.3.16.59.25.87.21.65.02 1.19-.51 1.59-.31.23-.65.43-1.01.58-1.17.5-2.37.76-3.66.75-4.11-.04-8.22-.01-12.33-.02-.3 0-.61.02-.89-.06-.82-.24-1.31-.8-1.41-1.69.28-.66.89-.92 1.48-1.21.3-.14.61-.25.89-.41.93-.51 1.35-1.31 1.35-2.36 0-1.89-.01-3.78.03-5.67.02-1.04.06-2.1.24-3.13.21-1.16.05-2.26-.14-3.38a9.49 9.49 0 0 0-.32-1.3c-.14-.48-.43-.83-.92-1.03-.44-.18-.87-.4-1.28-.66-.49-.3-.83-.7-.58-1.37.4-.36.93-.49 1.46-.54 1.01-.09 2.03-.21 3.04-.21 3.51-.01 7.02.04 10.52.05 1.6.01 3.51 1.2 3.68 3.27.09 1.11-.13 2.21-.86 3.13-.48.61-.82.74-1.64.7zm91.2 14.11c.39-.35.77-.69 1.16-1.02.18-.16.38-.29.57-.44.97-.73 1.68-1.61 1.77-2.88.06-.89.19-1.78.22-2.68.02-.56-.02-1.15-.16-1.69-.23-.91-.04-1.8.08-2.67.1-.68.04-1.31-.12-1.95-.12-.49-.09-.93.05-1.41.09-.31.17-.65.12-.96-.18-1.12-.74-1.59-1.9-1.63-.49-.02-.95-.07-1.37-.37-.24-.54-.09-1.05.11-1.56.13-.33.39-.53.73-.6.55-.12 1.11-.3 1.67-.31 2.94-.03 5.88-.13 8.82.02 2.48.13 4.61 1.21 6.17 3.23.55.71.82 1.52.78 2.43-.04 1.05.01 2.09-.21 3.13-.15.7-.43 1.31-1.05 1.71-.55.35-1.14.66-1.69 1-.33.2-.67.4-.94.67-.42.42-.42 1.02-.01 1.45.28.3.63.56.98.78.67.41 1.04 1.01 1.06 1.77.02.74.39 1.25.92 1.66.4.31.84.57 1.27.84 1.1.7 1.23 1.63.38 2.62-.67.77-1.5 1.11-2.52 1.19-1.64.12-2.74-.61-3.35-2.03-.47-1.09-.78-2.25-1.14-3.39-.27-.86-.49-1.72-.72-2.59-.12-.47-.38-.8-.78-1.06-.64-.42-1.34-.67-2.1-.7-.51-.02-1.03-.04-1.52.04-.89.16-1.35.76-1.15 1.58.17.66.22 1.36.26 2.04.06.97.54 1.63 1.35 2.09.34.19.7.34 1.05.5.48.23.86.53.89 1.13.03.63-.2 1.1-.73 1.44-.36.23-.74.36-1.18.36-1.53-.02-3.06 0-4.59-.01-.82 0-1.59-.26-2.34-.56-.44-.16-.74-.53-.84-1.17zm6.11-14.05c0 .66-.01 1.32 0 1.98.03 1.1.5 1.71 1.57 2 .31.09.64.15.97.15 1.6.03 3.16-.22 4.64-.83.55-.23 1.08-.52 1.57-.86.61-.44.99-1.06.94-1.84-.06-.96-.44-1.81-1.21-2.42-.47-.37-.99-.68-1.52-.93-1.75-.83-3.64-.95-5.53-.83-.76.05-1.13.17-1.34 1.17-.05.23-.08.47-.08.71-.02.56-.01 1.13-.01 1.7zM37.85 176.03c.63-.72 1.25-1.41 1.84-2.12.83-1.01 1.19-2.2 1.19-3.5 0-1.2 0-2.4.03-3.6.04-1.73.12-3.47.17-5.2.02-.78.04-1.56-.2-2.32-.22-.69-.58-1.24-1.28-1.52-.06-.02-.11-.06-.16-.08-.92-.47-1.01-.63-.84-1.74.54-.46 1.24-.54 1.91-.57 1.5-.06 3-.04 4.5-.03.58.01 1.13.15 1.53.59.15.9.08 1.1-.64 1.47-.4.21-.82.36-1.24.52-.44.17-.7.49-.72.94-.08 1.49-.09 2.98-.01 4.52.22.04.4.09.57.09.5-.01.93.1 1.33.43.19.16.49.26.74.26 1.23.03 2.45.01 3.61.01.4-.26.52-.58.61-.94.31-1.28.26-2.56-.09-3.82-.26-.91-.79-1.68-1.69-2.12-.45-.22-.8-.51-.79-1.09.01-.41.18-.71.56-.83.4-.12.81-.23 1.22-.23 1.62-.02 3.24-.01 4.86.02.34.01.71.12 1.01.3.97.57 1.05 1.55.21 2.29-.36.32-.76.58-1.14.88-.28.22-.57.43-.84.68-.48.45-.72.99-.71 1.67.05 2.61.02 5.22.09 7.82.02 1.01.21 2.02.31 3.03.04.41.22.75.51 1.02.47.46.93.95 1.46 1.33.76.54.85 1.27.71 2.07-.11.65-.63 1.1-1.31 1.18-1.7.21-3.4.26-5.09-.02-.61-.1-1.22-.31-1.49-1-.21-.53-.19-1.02.23-1.4 1.2-1.1 1.5-2.54 1.63-4.05.06-.71.1-1.43.16-2.14.04-.55-.18-.99-.54-1.37-.28-.3-.6-.46-1.03-.45-1.14.02-2.28.03-3.42 0-1.21-.03-1.67.72-1.85 1.67-.05.26-.04.54-.01.81.11 1.19.23 2.38.37 3.57.06.55.43.91.84 1.22.33.25.7.47 1.02.74.2.17.4.37.53.6.29.49.17.93-.31 1.23-.15.1-.32.18-.48.23-2.03.68-4.1.8-6.19.36-.8-.17-1.5-.52-1.68-1.41zm-19.38-10.49c-.67-.16-.84-.74-.96-1.28-.13-.58-.19-1.18-.22-1.78-.05-.99-.09-1.97-.35-2.93-.3-1.12-1.01-1.85-1.93-1.84-.97.01-1.69.38-2.21 1.54-.14.32-.21.69-.21 1.04 0 1.47-.12 2.92-.33 4.38-.17 1.23.04 2.44.19 3.66.06.5.15 1.01.13 1.51-.01.58.17 1.05.57 1.46.5.52.99 1.02 1.24 1.73.16.47.6.72 1.08.89.31.11.63.21.93.34.75.33 1.07.8 1.05 1.51-.02.75-.44 1.28-1.11 1.48a9.1 9.1 0 0 1-2.2.35c-1.41.06-2.82.08-4.23.02-1.19-.05-2.38-.19-3.56-.37-.49-.07-.98-.3-1.41-.56-.8-.49-.82-1.46-.03-1.99.41-.28.91-.43 1.39-.6.34-.12.71-.13 1.05-.24.97-.31 1.68-.86 1.94-1.92.21-.87.4-1.74.45-2.64.07-1.37.21-2.74.33-4.11.05-.53-.05-1.03-.3-1.47-.38-.66-.42-1.36-.39-2.09.02-.54.05-1.08.03-1.62-.04-1.13-.54-1.76-1.64-2.07-.4-.11-.82-.19-1.23-.23-.59-.06-1.05.18-1.34.71-.35.65-.49 1.34-.53 2.07-.05.93-.09 1.85-.19 2.77-.05.44-.2.87-.36 1.28-.14.36-.43.55-.85.53-.42-.02-.65-.27-.78-.63-.05-.14-.12-.28-.12-.43 0-.75-.05-1.51.07-2.24.09-.54.1-1.01-.21-1.45-.29-.42-.31-.81-.03-1.25.12-.19.14-.45.16-.68.02-.27-.01-.54 0-.81.05-1.38.74-2.26 2.09-2.37 1.9-.16 3.8-.34 5.73-.1 1.99.25 4 .3 6.01.22.21-.01.41-.06.62-.1.98-.16 2.13.29 2.63 1.3.45.9.66 1.87.7 2.85.06 1.26.03 2.52 0 3.78-.01.41-.09.84-.2 1.23-.22.73-.73 1.1-1.47 1.15zm130.09 10.65c-.09-.99.09-1.4.91-1.76.52-.23 1.08-.34 1.62-.51.37-.12.75-.21 1.1-.37.51-.23.9-.62 1.07-1.15.19-.6.4-1.2.46-1.82.17-1.79.27-3.58.4-5.37.05-.64-.09-1.24-.34-1.83-.15-.34-.23-.74-.24-1.12-.03-.69.01-1.38.03-2.07.02-1.28-.65-2.05-1.91-2.33-.26-.06-.53-.1-.79-.14-.73-.11-1.32.17-1.62.85-.2.46-.32.97-.38 1.46-.1.92-.11 1.85-.19 2.77-.04.47-.14.95-.27 1.4-.2.72-.59 1.07-1.47.75-.49-.57-.59-1.3-.52-2.06.05-.5.19-1 .22-1.5.02-.28-.05-.59-.15-.86-.09-.25-.27-.47-.39-.67 0-.1-.02-.17 0-.21.37-.61.45-1.27.42-1.98-.07-1.52.78-2.37 2.33-2.5 1.22-.1 2.45-.17 3.67-.17 1.13.01 2.27.12 3.4.21 1.7.15 3.4.22 5.1 0 1.16-.15 2.2.45 2.7 1.65.39.95.55 1.96.59 2.98.04.93.03 1.86 0 2.79-.02.53-.1 1.07-.21 1.6-.16.75-.61 1.22-1.42 1.28-.5-.09-.78-.41-.9-.88-.11-.43-.25-.87-.29-1.31-.09-.86-.14-1.73-.19-2.59-.04-.67-.2-1.3-.5-1.9-.83-1.65-2.72-1.3-3.49-.28-.37.49-.55 1.04-.59 1.66-.13 1.94-.29 3.87-.43 5.81-.01.17.03.35.05.52.14 1.19.26 2.38.42 3.56.04.31.16.64.33.9.22.35.55.63.81.96.18.23.38.47.48.75.22.62.66.98 1.25 1.2.28.1.57.19.84.31.72.29 1.15.83 1.11 1.47-.05.79-.38 1.31-1.16 1.53-.68.2-1.4.32-2.11.35-1.47.06-2.94.06-4.41.03-1.34-.03-2.69-.12-3.99-.53-.69-.2-.72-.23-1.35-.88zm-28.32-.87c.33-.23.63-.46.95-.68.88-.59 1.09-1.09.87-2.13-.13-.61-.4-.89-1.01-.97-.24-.03-.48 0-.72-.02-.78-.04-1.55-.12-2.32-.14-.47-.01-.96.03-1.42.15-.6.16-.8.54-.69 1.17.05.26.16.51.27.76.26.57.56 1.13.82 1.7.4.89.15 1.5-.77 1.85-.25.1-.51.19-.78.21-1.52.12-3.06.22-4.56-.16-.87-.22-1.05-.62-.85-1.57.04-.21.31-.46.53-.54 1.08-.43 1.63-1.3 1.95-2.32.39-1.25.71-2.53 1.05-3.8.23-.87.47-1.73.68-2.6.18-.77.5-1.47.94-2.12.35-.51.51-1.06.59-1.67.28-2.2.71-4.37 1.67-6.39.5-1.04 1.3-1.42 2.43-1.22.6.11 1.02.43 1.31.98.55 1.04.92 2.15 1.19 3.28.45 1.86.81 3.73 1.26 5.59.52 2.18 1.08 4.35 1.65 6.52.33 1.27 1.19 2.12 2.3 2.75.39.22.79.43 1.2.62 1.03.49 1 1.99-.04 2.43-.49.21-1.02.38-1.54.41-1.55.11-3.12.16-4.63-.32-.45-.14-.9-.32-1.34-.52-.49-.21-.84-.55-.99-1.25zm-3.74-7.41c.11.15.22.38.4.52.87.66 1.87.77 2.9.53.46-.11.8-.43.96-.87.12-.33.22-.7.21-1.04-.04-1.37-.06-2.76-.22-4.12-.12-1.06-.42-2.1-.68-3.14-.1-.39-.25-.79-.64-1.02-.88.77-.89.77-1.13 1.78-.6 2.4-1.18 4.81-1.8 7.36zM9.91 200.63c.12.09.2.18.31.22 1.41.57 1.91 2.32 1.55 3.84-.43 1.8-1.69 2.8-3.55 2.83-1.95.03-3.9.01-5.85.02-.44 0-.86-.03-1.06-.5-.22-.53-.25-1.08.13-1.52.19-.22.55-.3.89-.48v-8c-.89-.29-1.1-.5-1.18-1.17-.09-.77.33-1.29 1.11-1.29 1.86-.01 3.72-.04 5.58.03 1.26.05 2.36.55 2.93 1.76.53 1.13.64 2.81-.6 3.99-.09.07-.16.16-.26.27zm-5.09 4.59c1.11-.06 2.12.1 3.12-.18.77-.22 1.25-.83 1.22-1.56-.03-.71-.49-1.34-1.23-1.47-.99-.17-1.99-.32-3.03-.16-.03.14-.08.25-.08.36-.01.95 0 1.9 0 3.01zm0-8.3c.01.96-.04 1.81.03 2.7.76 0 1.44.01 2.12-.01.17 0 .35-.07.51-.14.64-.26.89-.7.82-1.41-.06-.59-.46-1.08-1.08-1.13-.76-.06-1.54-.01-2.4-.01zm158.58.52c.04.42.07.72.1 1.06.13-.1.25-.15.32-.24 1.33-1.61 3.96-1.34 5.37-.16 1.17.98 1.75 2.25 1.8 3.77.04 1.03-.09 2.02-.52 2.97-1.11 2.47-4.05 3.46-6.4 1.93-.05-.03-.11-.05-.22-.1-.15.46-.06.93-.07 1.39-.01.45 0 .89 0 1.35.44.21.86.09 1.27.11.91.04 1.31.47 1.25 1.36-.05.68-.32.98-1.02.99-1.56.02-3.12.02-4.68 0-.62-.01-.85-.26-.91-.88-.02-.15-.01-.3 0-.45.04-.6.34-.94.93-1 .24-.03.48-.03.7-.04l.08-.08c.02-.02.04-.05.04-.07.01-2.94.03-5.87.03-8.81 0-.21-.02-.41-.03-.62-.1-.05-.18-.09-.26-.11-.87-.25-1.23-1.09-.82-1.89.16-.3.4-.43.72-.45.24-.01.48-.02.72-.02.5-.01 1.01-.01 1.6-.01zm4.91 4.92c.04-.8-.18-1.52-.7-2.15-.78-.94-2.02-.98-2.93-.18-.98.87-1.34 3.15-.12 4.51.87.97 2.32.89 3.11-.16.45-.6.66-1.27.64-2.02zM47.73 207.4c-.34.53-.85.55-1.37.47-.32-.05-.59-.23-.61-.57-.06-1.19-.11-2.39-.13-3.58 0-.23.13-.45.2-.65.9-.53 1.32-.44 1.79.38.1.18.17.38.25.57.79 1.77 2.15 1.95 3.64 1.69.56-.1.94-.53 1.06-1.11.12-.58-.04-1.1-.57-1.4-.49-.28-1.01-.52-1.54-.71-.7-.26-1.44-.41-2.13-.69-1.98-.79-2.51-1.66-2.42-3.79.08-1.88 1.52-3.49 3.49-3.76 1.16-.16 2.34-.1 3.47.47.44-.55 1.01-.67 1.66-.41.04.05.11.09.11.14.08 1.04.16 2.08.22 3.12.01.11-.05.23-.07.35-.07.38-.21.68-.64.76-.48.09-.91-.07-1.17-.47-.13-.2-.21-.43-.32-.64-.72-1.31-1.67-1.39-2.81-1.15-.48.1-.84.46-1.03.93-.24.59-.14 1.06.4 1.4.48.29 1.01.51 1.54.69.76.26 1.55.43 2.31.69 1.42.49 2.15 1.55 2.34 3.01.09.75.01 1.5-.25 2.21-.38 1.05-1.09 1.79-2.14 2.16-1.51.54-3.05.5-4.59.11-.2-.05-.4-.13-.69-.22zm100.06-10.36c-.14-.06-.22-.1-.3-.12-.88-.25-1.26-1.1-.8-1.87.12-.2.4-.42.62-.43 1.14-.05 2.28-.05 3.41-.02.49.01.73.32.81.81.14.85-.2 1.32-1.19 1.62-.01.18-.04.38-.04.59 0 1.8-.01 3.6.01 5.39 0 .41.06.84.18 1.23.27.93.97 1.4 1.98 1.32 1.2-.08 1.64-.64 1.82-1.42.07-.29.16-.59.16-.88.01-2.07.01-4.13.01-6.19-.11-.06-.18-.12-.26-.14-.91-.27-1.27-1.17-.76-1.96.15-.24.37-.39.67-.39 1.08 0 2.16-.01 3.23.02.18 0 .42.13.53.27.34.41.2.91.17 1.38-.03.39-.34.54-.67.64-.11.03-.23.05-.39.09-.02.24-.05.47-.05.7 0 1.65.03 3.3-.02 4.94-.02.83-.14 1.66-.32 2.48-.38 1.76-1.73 2.67-3.51 2.78-.84.05-1.67.06-2.49-.18-1.2-.34-2.07-1.04-2.43-2.28-.23-.78-.36-1.57-.36-2.38.01-1.71 0-3.42 0-5.12-.01-.3-.01-.6-.01-.88zm38.94-2.22l.6-.57h.86c.34.29.43.62.43 1 0 1.08.02 2.16 0 3.24 0 .29-.11.57-.17.86-.25.08-.44.18-.64.21-.47.07-.81-.12-1.01-.56-.13-.3-.2-.62-.32-.93-.35-.97-1.08-1.49-2.12-1.5-1.22-.01-2.14.51-2.68 1.62-.52 1.07-.63 2.24-.56 3.41.04.56.16 1.12.31 1.67.37 1.35 1.32 2.16 2.69 2.26.43.03.89-.1 1.3-.25.47-.17.91-.44 1.36-.68.19-.1.36-.22.54-.32.39-.19.78-.51 1.23-.11.38.34.56 1.08.31 1.57-.16.31-.39.63-.67.83-1.93 1.38-4.04 1.76-6.29.94-1.37-.5-2.32-1.52-2.86-2.83-1.07-2.59-1.08-5.19.28-7.7.71-1.31 1.77-2.26 3.26-2.62 1.13-.27 2.25-.22 3.36.17.28.08.53.19.79.29zm-71.99 7.95c-.4.35-.83.28-1.25.29-1.77.01-3.54 0-5.31.01-.29 0-.58.02-.87.03 0 1.06.64 1.96 1.61 2.29 1.22.41 2.36.13 3.46-.41.32-.16.63-.35.95-.51.36-.19.78-.31 1.09-.01.34.32.41.75.26 1.24-.18.59-.59 1-1.09 1.26-.63.32-1.31.61-2.01.73-.81.14-1.64.17-2.49.09-2.23-.23-4.18-2.16-4.38-4.42-.08-.91-.06-1.79.21-2.65.55-1.78 1.78-2.87 3.55-3.36.9-.25 1.81-.24 2.75-.06 1.82.36 3.52 2.22 3.63 3.98.05.5.12.98-.11 1.5zm-2.29-1.43c-.48-1.58-1.51-2.26-3.05-2.08-1.19.14-2.02.95-2.1 2.06.66.14 4.18.16 5.15.02zm116.95 1.72c.21 1.54 1.12 2.41 2.54 2.51.79.05 1.55-.1 2.26-.45.46-.23.9-.48 1.37-.68.8-.35 1.29-.03 1.32.83.02.56-.19 1.01-.62 1.33-.41.3-.85.58-1.32.75-1.87.66-3.75.79-5.55-.21-1.29-.71-2.11-1.81-2.42-3.29-.24-1.18-.22-2.33.21-3.44.65-1.69 1.88-2.73 3.66-3.11.8-.17 1.58-.19 2.4-.03 2.35.47 3.97 2.54 3.8 4.93-.04.58-.23.79-.83.84-.3.03-.6.02-.9.02h-5.92zm5.13-1.71c-.14-1.23-1.03-2.01-2.31-2.1-1.32-.1-2.58.52-2.83 2.08.7.12 4.13.14 5.14.02zm-154.61.98c.07 1.15-.13 2.12-.65 2.98-.85 1.41-2.1 2.22-3.77 2.43-.91.12-1.78.05-2.64-.2-2.04-.58-3.14-2.04-3.49-4.03-.26-1.47-.05-2.92.84-4.2.64-.92 1.47-1.55 2.54-1.89 1.23-.39 2.45-.4 3.7-.03 2.04.61 3.44 2.57 3.47 4.53v.41zm-2.62.07c-.08-.41-.12-.83-.26-1.21-.4-1.05-1.18-1.67-2.29-1.73-1.09-.07-1.9.47-2.39 1.44-.56 1.09-.53 2.23.05 3.28.86 1.56 2.87 1.86 4.08.48.56-.66.79-1.41.81-2.26zm135.89.12c.02 1.51-.46 2.83-1.56 3.89-.85.82-1.87 1.21-3.06 1.35-1.27.15-2.45-.03-3.54-.66-1.24-.72-2.06-1.79-2.36-3.24-.2-.95-.24-1.9.02-2.84.55-2.03 1.83-3.3 3.92-3.75 1.41-.3 2.75-.14 4 .55 1.51.85 2.38 2.15 2.52 3.9l.06.8zm-2.71 0c-.01-.24-.01-.48-.04-.72a2.704 2.704 0 0 0-2.09-2.31c-.97-.23-2.08.27-2.68 1.24-.82 1.34-.47 3.1.39 4.01.72.76 1.73.96 2.71.6 1.1-.41 1.77-1.72 1.71-2.82zm6.97 4.93c-.42.16-.71.31-1.03.38-.41.09-.79-.1-.84-.48-.14-1.03-.25-2.08.1-3.1.03-.08.11-.14.21-.27h1.1c.18.23.34.44.5.66.85 1.21 2.08 1.43 3.43 1.26.53-.07.92-.42 1.01-1-.09-.55-.5-.81-.96-.96-.54-.17-1.1-.28-1.66-.37-.89-.14-1.76-.32-2.55-.78-.85-.5-1.22-1.27-1.28-2.23-.11-1.68.78-2.83 2.26-3.22a6.59 6.59 0 0 1 1.77-.2c.59.01 1.18.16 1.77.27.23.04.46.12.69.18.2-.14.37-.32.58-.42.58-.26 1.12.04 1.16.68.05.66.05 1.32 0 1.98-.04.56-.51.84-1.04.61-.35-.15-.67-.39-.98-.62-.56-.42-1.14-.76-1.84-.87-.85-.13-1.5.22-1.84 1.02.06.58.49.81.97.92.67.15 1.35.22 2.02.38.64.15 1.27.32 1.89.55.86.32 1.36.99 1.5 1.87.33 2.05-.6 3.6-2.82 4.04-1.42.27-2.79.05-4.12-.28zm-93.09-2.53c-.13-.61-.55-.85-1.02-.99-.51-.16-1.05-.23-1.57-.36-.72-.17-1.47-.29-2.16-.56-1.15-.44-1.7-1.35-1.72-2.59-.02-1.29.46-2.29 1.65-2.85.91-.43 1.9-.55 2.89-.41.65.09 1.28.26 2 .41.11-.09.26-.23.43-.33.64-.37 1.25-.07 1.29.65.04.63.03 1.26 0 1.89-.04.6-.52.89-1.09.64-.35-.16-.66-.4-.98-.63-.49-.35-.99-.64-1.59-.8-.51-.13-.95.02-1.4.13-.16.04-.31.19-.43.32-.37.4-.35.86.12 1.14.41.23.88.37 1.34.48.7.16 1.41.25 2.11.38.18.03.34.1.51.15 1.43.48 2.06 1.25 2.12 2.56.07 1.76-.7 2.8-1.96 3.3-1.01.4-2.09.5-3.18.35-.65-.09-1.29-.23-1.92-.35-.31.12-.6.28-.92.36-.49.12-.9-.11-.93-.59-.06-.86-.04-1.74 0-2.6.01-.21.2-.42.31-.65h1.14c.15.2.32.41.47.63.76 1.07 2.24 1.62 3.5 1.31.43-.1.69-.36.99-.99zm-62.45-7c1.4.28 2.78-.23 4.05.36.09.32.19.57.22.83.08.74-.32 1.21-1.07 1.23-.72.02-1.44.01-2.16.01h-.94c-.04.2-.1.37-.1.53-.01.9-.01 1.8 0 2.7 0 .21.01.42.06.62.2.78.52 1.01 1.34 1.05.62.03 1.18-.14 1.73-.39.33-.15.65-.3.99-.43.6-.23 1.02-.15 1.28.26.36.55.36 1.07.01 1.49-.24.29-.54.58-.88.76-1.54.83-3.18 1.02-4.86.59-1.19-.3-1.94-1.24-1.99-2.47-.04-1.23-.02-2.46-.03-3.68 0-.29-.01-.58-.02-.84-.4-.28-.77-.17-1.12-.19-.79-.04-1.01-.25-1.02-1.04-.01-.29.03-.59.04-.83.57-.72 1.34-.37 1.98-.52.23-.26.12-.58.13-.86.02-.66-.01-1.32.01-1.98.02-.75.32-1.04 1.03-1.07.81-.04 1.22.26 1.29 1.03.04.45.02.9.02 1.35.02.47.01.95.01 1.49zm132.63-2.27c-.67-.11-1.36.1-2.04-.37-.06-.19-.2-.46-.23-.75-.09-.91.31-1.35 1.23-1.36 1.08-.02 2.16 0 3.13 0 .46.25.42.59.42.93v10.97c.49.21.94.1 1.38.12.36.02.72-.01 1.08.02.56.05.78.29.82.86.01.12.01.24.01.36-.02.79-.3 1.09-1.09 1.1-1.11.02-2.22.01-3.33.01h-3.42c-.4 0-.78-.05-1.13-.47-.01-.29-.06-.68-.04-1.06.03-.54.24-.76.78-.79.63-.04 1.26-.02 1.89-.03.15 0 .3-.01.49-.02.04-.14.1-.27.1-.41v-8.82c.01-.07-.02-.12-.05-.29zm-108.33 9.53h2.34c1 .03 1.29.33 1.24 1.31-.03.69-.36 1.03-1.08 1.04-1.29.02-2.58.01-3.86.01-.63 0-1.26.01-1.89-.01-.84-.03-1.06-.27-1.08-1.08 0-.15-.01-.3.01-.45.05-.53.25-.73.79-.79.35-.04.7-.05 1.03-.07.18-.69.22-4.16.07-5.29l-.68-.06c-.61-.07-.82-.29-.86-.92v-.09c-.04-1.11.15-1.32 1.27-1.33.57-.01 1.14-.01 1.71 0 .23 0 .46.05.76.09.04.59.07 1.14.11 1.77.56-.5 1.02-.96 1.54-1.35 1.06-.81 2.25-1.12 3.54-.63 1.02.39 1.36 1.75.68 2.54-.44.5-1.09.62-1.8.29-.4-.19-.8-.39-1.17-.58-1.04.32-1.75 1.01-2.41 1.75-.14.16-.23.43-.24.65-.03 1.03-.02 2.05-.02 3.2zm-66.25.01c.84 0 1.53-.02 2.21 0 .98.03 1.52 1.1.96 1.91-.13.2-.42.31-.66.4-.19.07-.41.03-.62.03h-6.2c-.15 0-.3.01-.45-.01-.68-.06-.94-.33-.98-1.03-.01-.15 0-.3.01-.45.05-.58.25-.81.83-.84.63-.03 1.26-.02 1.89-.02.15 0 .29-.02.42-.03.18-.68.2-4.41.02-5.36-.33 0-.69.01-1.04 0-.79-.02-1.09-.29-1.17-1.04-.09-.79.31-1.29 1.09-1.3 1.02-.02 2.04-.01 3.05 0 .17 0 .34.07.54.11.18.85.07 1.69.09 2.52.02.84 0 1.68 0 2.52.01.82.01 1.65.01 2.59zm77.21-.01c.13-1.15.1-4.65-.04-5.39-.33 0-.69.01-1.04 0-.79-.02-1.09-.29-1.17-1.05-.08-.79.31-1.28 1.09-1.29 1.02-.02 2.04-.01 3.05 0 .17 0 .34.07.54.11.18.86.07 1.69.09 2.52.02.84 0 1.68 0 2.51v2.54c.32.02.55.04.78.05.45.01.9-.01 1.35 0 1.06.03 1.48.66 1.15 1.68-.13.4-.4.58-.77.64-.2.04-.42.02-.63.02h-6.2c-.15 0-.3.01-.45-.01-.65-.05-.92-.32-.97-.95-.01-.18-.01-.36.01-.54.05-.58.26-.8.84-.84.45-.03.9-.02 1.35-.02.32.02.65.02 1.02.02zm39.53-1.37c-1.11 2.54-2.2 4.9-3.29 7.26-.62.08-1.05-.19-1.53-.43-.02-.2-.09-.42-.05-.6.46-1.94.94-3.87 1.42-5.81.03-.14.14-.26.23-.42h3.22zm-37.43-10.97c.2.87.28 1.72-.02 2.67-.16.31-.55.32-.94.32-1.28.03-1.47-.15-1.46-1.4 0-.39 0-.78.07-1.16.11-.58.4-.8.99-.84.47-.02.95-.06 1.36.41zm-81.86 2.96c-.12-.33-.26-.54-.27-.76-.03-.53-.04-1.07.01-1.6.08-.72.4-.98 1.12-1 .45-.01.9-.03 1.26.41.21.83.28 1.7-.01 2.66-.11.07-.27.26-.44.28-.52.03-1.05.01-1.67.01zm94.87-133.42c-.1-.01-.25-.03-.43-.06-.14.22-.28.44-.43.67h-.49c.02-.19-.01-.39.07-.51.2-.28.47-.51.68-.79.1-.13.13-.32.2-.51.52-.27 1.04-.72 1.79-.33.03.16.06.35.1.52-.51.34-.99.67-1.49 1.01zm10.89 64.54c-.39-.18-.71-.32-1.03-.47.01-.12.01-.23.02-.35-.2-.23-.8-.09-.63-.72.49-.16 1.01-.11 1.54-.03.3.49.52.96.1 1.57zM93.31 72.33c.84-.12.99-.02 1.3.78-.22.18-.44.37-.69.58-.14-.11-.25-.19-.35-.28-.09-.08-.17-.17-.29-.29 0-.22.01-.48.03-.79zm6.23 2.37c-.71-.19-.78-.35-.62-1.39.19-.02.38-.03.62-.05.09.11.17.22.27.32.08.08.18.14.22.17.15.55-.31.67-.49.95z"/><path d="M38.32 134.67c.17-.01.35-.02.57-.02.18.27.61.37.49.96-.12.08-.33.23-.68.48-.43.07-.67-.5-.38-1.42zm43.46-60.46c.18-.03.27-.05.36-.06.09-.01.18 0 .33 0 .19.22.58.34.51.86-.15.17-.34.37-.59.64-.23-.2-.43-.39-.61-.55v-.89zm81.87-30.41h1.13c.22.14.37.34.2.58-.1.14-.34.23-.52.24-.48.03-.64-.14-.81-.82zm-34.09 54.29h-.77c-.03-.3-.06-.58-.09-.91.21-.12.4-.23.58-.34.44.37.3.78.28 1.25zm-23.3-40.92c-.99-.21-.99-.21-1.08-.78.48-.08.95-.2 1.41.22-.12.2-.22.36-.33.56zm10.78 68.7h1v.73c-.31.29-.68.04-1-.73zm-3.22-67.85h.6c.04.4.39.77-.08 1.2-.32-.33-.71-.57-.52-1.2zm13.67 40.86v-.53c.37 0 .65-.47 1.06-.14-.16.66-.27.73-1.06.67zm-.56.72h.97c.25.21.26.44.11.7-.07.01-.14.05-.17.03-.26-.2-.51-.41-.91-.73zm-.31-.38c.02.16.03.25.05.36-.27.19-.54.15-.84.03.01-.12.01-.23.02-.39h.77zM79.59 81.48v-.6h.6c-.12.52-.12.52-.6.6zm34.27-22.36c.16.45-.03.64-.44.77-.06-.17-.12-.32-.19-.53.23-.08.42-.16.63-.24zm-27.6-5.74c-.02-.23-.03-.45-.05-.72.18-.02.31-.03.45-.05.04.12.09.19.1.27.03.33-.1.5-.5.5zm29.27 6.43l-.59.37c-.04-.27-.06-.44-.09-.61.3-.19.52-.22.68.24zm9.95 41.42c.38-.05.67-.11.66.4-.2.01-.38.02-.61.04-.02-.16-.03-.26-.05-.44zM113.55 56.6c.07.4.03.65-.48.59-.01-.2-.02-.39-.04-.65.22.03.38.05.52.06z"/></svg>